SplineFontDB: 3.0
FontName: Untitled1
FullName: Untitled1
FamilyName: Untitled1
Weight: Regular
Copyright: Copyright (c) 2019, Jack
UComments: "2019-8-23: Created with FontForge (http://fontforge.org)"
Version: 001.000
ItalicAngle: 0
UnderlinePosition: -1020
UnderlineWidth: 178
Ascent: 1610
Descent: 390
InvalidEm: 0
LayerCount: 2
Layer: 0 0 "Back" 1
Layer: 1 0 "Fore" 0
XUID: [1021 647 -312734098 29385]
StyleMap: 0x0000
FSType: 0
OS2Version: 0
OS2_WeightWidthSlopeOnly: 0
OS2_UseTypoMetrics: 1
CreationTime: 1566577596
ModificationTime: 1567038090
OS2TypoAscent: 0
OS2TypoAOffset: 1
OS2TypoDescent: 0
OS2TypoDOffset: 1
OS2TypoLinegap: 180
OS2WinAscent: 0
OS2WinAOffset: 1
OS2WinDescent: 0
OS2WinDOffset: 1
HheadAscent: 0
HheadAOffset: 1
HheadDescent: 0
HheadDOffset: 1
Lookup: 260 0 0 "Above" { "Above-1"  } ['mark' ('DFLT' <'dflt' > 'latn' <'ROM ' 'TRK ' 'dflt' > ) ]
MarkAttachClasses: 1
DEI: 91125
Encoding: Custom
UnicodeInterp: none
NameList: AGL For New Fonts
DisplaySize: -96
AntiAlias: 1
FitToEm: 0
WinInfo: 0 16 10
BeginPrivate: 0
EndPrivate
Grid
1099 2610 m 0
 1099 -1390 l 1024
  Named: "right"
1112 2610 m 0
 1112 -1390 l 1024
  Named: "o-right"
88 2610 m 0
 88 -1390 l 1024
  Named: "o-left"
100 2612 m 0
 100 -1388 l 1024
  Named: "left"
-1993 -12 m 0
 4007 -12 l 1024
  Named: "c-bot"
-2000 1012 m 0
 4000 1012 l 1024
  Named: "z-top"
-1998 1000 m 0
 4002 1000 l 1024
  Named: "z-top"
EndSplineSet
AnchorClass2: "Above" "Above-1"
BeginChars: 278 44

StartChar: my
Encoding: 0 60224 1
Width: 1200
Flags: W
HStem: 0 100<200 999> 450 100<150 1049> 900 100<200 999>
VStem: 100 100<100 900> 999 100<100 900>
CounterMasks: 1 e0
AnchorPoint: "Above" 600 0 basechar 0
LayerCount: 2
Back
SplineSet
150 950 m 29
 1049 950 l 29
 1049 50 l 29
 150 50 l 29
 150 950 l 29
150 500 m 29
 1049 500 l 1053
EndSplineSet
Fore
SplineSet
150 500 m 1
 150 550 l 1
 1049 550 l 1
 1049 500 l 1
 1049 450 l 1
 150 450 l 1
 150 500 l 1
EndSplineSet
Refer: 17 60240 N 1 0 0 1 0 0 2
EndChar

StartChar: py
Encoding: 1 60225 2
Width: 1200
Flags: W
HStem: 0 100<200 1099> 450 100<150 1099> 900 100<200 1099>
VStem: 150 50<450 550>
CounterMasks: 1 e0
AnchorPoint: "Above" 600 0 basechar 0
LayerCount: 2
Back
SplineSet
150 500 m 29
 1099 500 l 1053
1099 950 m 29
 150 950 l 29
 150 50 l 29
 1099 50 l 1053
EndSplineSet
Fore
SplineSet
150 500 m 1
 150 550 l 1
 1099 550 l 1
 1099 500 l 1
 1099 450 l 1
 150 450 l 1
 150 500 l 1
1099 950 m 1
 1099 900 l 1
 200 900 l 1
 200 100 l 1
 1099 100 l 1
 1099 50 l 1
 1099 0 l 1
 150 0 l 2
 128.540191335 0 100 19.7349242889 100 50 c 2
 100 950 l 2
 100 971.459808665 119.734924289 1000 150 1000 c 2
 1099 1000 l 1
 1099 950 l 1
EndSplineSet
EndChar

StartChar: by
Encoding: 2 60226 3
Width: 1200
Flags: W
HStem: 0 100<100 999> 450 100<100 1049> 900 100<100 999>
VStem: 999 50<450 550>
CounterMasks: 1 e0
AnchorPoint: "Above" 600 0 basechar 0
LayerCount: 2
Back
SplineSet
100 50 m 29
 1049 50 l 29
 1049 950 l 29
 100 950 l 1053
100 500 m 29
 1049 500 l 1053
EndSplineSet
Fore
SplineSet
100 50 m 1
 100 100 l 1
 999 100 l 1
 999 900 l 1
 100 900 l 1
 100 950 l 1
 100 1000 l 1
 1049 1000 l 2
 1070.45980867 1000 1099 980.265075711 1099 950 c 2
 1099 50 l 2
 1099 28.5401913347 1079.26507571 0 1049 0 c 2
 100 0 l 1
 100 50 l 1
100 500 m 1
 100 550 l 1
 1049 550 l 5
 1049 500 l 5
 1049 450 l 5
 100 450 l 1
 100 500 l 1
EndSplineSet
EndChar

StartChar: fy
Encoding: 3 60227 4
Width: 1200
Flags: W
HStem: 0.5 100<199.5 999.5> 450 100<150 1049>
VStem: 150 49.5<450 550> 999.5 49.5<450 550>
AnchorPoint: "Above" 600 0 basechar 0
LayerCount: 2
Back
SplineSet
150 500 m 29
 1049 500 l 1053
149.5 999.5 m 25
 149.5 50.5 l 25
 1049.5 50.5 l 25
 1049.5 999.5 l 1049
EndSplineSet
Fore
SplineSet
150 500 m 1
 150 550 l 1
 1049 550 l 1
 1049 500 l 1
 1049 450 l 1
 150 450 l 1
 150 500 l 1
149.5 999.5 m 1
 199.5 999.5 l 1
 199.5 100.5 l 1
 999.5 100.5 l 1
 999.5 999.5 l 1
 1049.5 999.5 l 1
 1099.5 999.5 l 1
 1099.5 50.5 l 2
 1099.5 29.0401913347 1079.76507571 0.5 1049.5 0.5 c 2
 149.5 0.5 l 2
 128.040191335 0.5 99.5 20.2349242889 99.5 50.5 c 2
 99.5 999.5 l 1
 149.5 999.5 l 1
EndSplineSet
EndChar

StartChar: vy
Encoding: 4 60228 5
Width: 1200
Flags: W
HStem: 0 21G<100 200 999 1099> 450 100<150 1049> 900 100<200 999>
VStem: 150 50<450 550> 999 50<450 550>
AnchorPoint: "Above" 600 0 basechar 0
LayerCount: 2
Back
SplineSet
150 500 m 29
 1049 500 l 1053
150 0 m 29
 150 950 l 29
 1049 950 l 29
 1049 0 l 1053
EndSplineSet
Fore
SplineSet
150 500 m 1
 150 550 l 1
 1049 550 l 1
 1049 500 l 1
 1049 450 l 1
 150 450 l 1
 150 500 l 1
150 0 m 1
 100 0 l 1
 100 950 l 2
 100 980.265075711 128.540191335 1000 150 1000 c 2
 1049 1000 l 2
 1079.26507571 1000 1099 971.459808665 1099 950 c 2
 1099 0 l 1
 1049 0 l 1
 999 0 l 1
 999 900 l 1
 200 900 l 1
 200 0 l 1
 150 0 l 1
EndSplineSet
EndChar

StartChar: ky
Encoding: 5 60229 6
Width: 1200
Flags: W
AnchorPoint: "Above" 600 0 basechar 0
LayerCount: 2
Back
SplineSet
1099 1000 m 29
 87 500 l 29
 1099 0 l 1053
EndSplineSet
Fore
SplineSet
1099 1000 m 1
 1121.1478081 955.172836402 l 1
 199.877987225 500 l 1
 1121.1478081 44.8271635984 l 1
 1099 0 l 1
 1076.8521919 -44.8271635984 l 1
 64.852191898 455.172836402 l 2
 57.8357659273 458.639450023 48.9981470094 466.098166706 44.0486689672 474.40345409 c 0
 29.335360872 499.092573037 39.0848140892 532.096245709 64.852191898 544.827163598 c 2
 1076.8521919 1044.8271636 l 1
 1099 1000 l 1
EndSplineSet
EndChar

StartChar: cy
Encoding: 6 60230 7
Width: 1200
Flags: W
HStem: 0 21G<550 650> 450 100<100 1099> 951.447 95.1062<1038.72 1088.1>
VStem: 550 100<0 442.139>
LayerCount: 2
Back
SplineSet
100 500 m 29
 1099 500 l 1053
600 330 m 29
 600 0 l 1053
100 1001 m 21
 203.647191149 953.656545899 594.52962498 631.863643584 600 330 c 5
 595.097845742 620.596734917 968.986358253 956.758547402 1099 999 c 1037
EndSplineSet
Fore
SplineSet
100 500 m 1
 100 550 l 1
 1099 550 l 1
 1099 500 l 1
 1099 450 l 1
 100 450 l 1
 100 500 l 1
600 330 m 1
 650 330 l 1
 650 0 l 1
 600 0 l 1
 550 0 l 1
 550 330 l 1
 600 330 l 1
1106.72500464 975.22345056 m 1
 1114.45000929 951.44690112 l 1
 1004.24051053 915.639817686 645.674662485 586.825089545 649.992887213 330.843343422 c 0
 650.425307003 305.209760227 630.477880349 282.720653248 604.825369276 280.233386579 c 0
 576.218715914 277.459686367 550.528963769 300.357958848 550.008208157 329.094048405 c 0
 545.177446918 595.662827213 171.103380567 913.552586378 79.2258481616 955.519953657 c 1
 100 1001 l 1
 120.774151838 1046.48004634 l 1
 217.713224101 1002.20069379 481.749780911 790.381173702 597.421996925 540.538583236 c 1
 706.109233789 787.468611066 959.549909069 1006.2654529 1083.54999071 1046.55309888 c 1
 1099 999 l 1
 1106.72500464 975.22345056 l 1
EndSplineSet
EndChar

StartChar: xy
Encoding: 7 60231 8
Width: 1200
Flags: W
HStem: 0 21G<550 650> 951.447 95.1062<1038.72 1088.1>
VStem: 550 100<0 492.781>
LayerCount: 2
Back
SplineSet
600 330 m 29
 600 0 l 1053
100 1001 m 21
 203.647191149 953.656545899 594.52962498 631.863643584 600 330 c 5
 595.097845742 620.596734917 968.986358253 956.758547402 1099 999 c 1037
EndSplineSet
Fore
SplineSet
600 330 m 1
 650 330 l 1
 650 0 l 1
 600 0 l 1
 550 0 l 1
 550 330 l 1
 600 330 l 1
1106.72500464 975.22345056 m 1
 1114.45000929 951.44690112 l 1
 1004.24051053 915.639817686 645.674662485 586.825089545 649.992887213 330.843343422 c 0
 650.425307003 305.209760227 630.477880349 282.720653248 604.825369276 280.233386579 c 0
 576.218715914 277.459686367 550.528963769 300.357958848 550.008208157 329.094048405 c 0
 545.177446918 595.662827213 171.103380567 913.552586378 79.2258481616 955.519953657 c 1
 100 1001 l 1
 120.774151838 1046.48004634 l 1
 217.713224101 1002.20069379 481.749780911 790.381173702 597.421996925 540.538583236 c 1
 706.109233789 787.468611066 959.549909069 1006.2654529 1083.54999071 1046.55309888 c 1
 1099 999 l 1
 1106.72500464 975.22345056 l 1
EndSplineSet
EndChar

StartChar: iy
Encoding: 8 60232 9
Width: 1200
VWidth: 4000
Flags: W
HStem: 0.5 100<199.5 1099.5>
VStem: 99.5 100<100.5 999.5>
AnchorPoint: "Above" 599 0 basechar 0
LayerCount: 2
Back
SplineSet
149.5 999.5 m 29
 149.5 50.5 l 29
 1099.5 50.5 l 1053
EndSplineSet
Fore
SplineSet
149.5 999.5 m 1
 199.5 999.5 l 1
 199.5 100.5 l 1
 1099.5 100.5 l 1
 1099.5 50.5 l 1
 1099.5 0.5 l 1
 149.5 0.5 l 2
 128.040191335 0.5 99.5 20.2349242889 99.5 50.5 c 2
 99.5 999.5 l 1
 149.5 999.5 l 1
EndSplineSet
EndChar

StartChar: ry
Encoding: 9 60233 10
Width: 1200
Flags: W
AnchorPoint: "Above" 600 0 basechar 0
LayerCount: 2
Back
SplineSet
1049 1000 m 29
 150 0 l 1053
150 1000 m 29
 1049 0 l 1053
EndSplineSet
Fore
SplineSet
1049 1000 m 1
 1086.18319051 966.572311728 l 1
 187.183190514 -33.427688272 l 1
 150 0 l 1
 112.816809486 33.427688272 l 1
 1011.81680949 1033.42768827 l 1
 1049 1000 l 1
150 1000 m 1
 187.183190514 1033.42768827 l 1
 1086.18319051 33.427688272 l 1
 1049 0 l 1
 1011.81680949 -33.427688272 l 1
 112.816809486 966.572311728 l 1
 150 1000 l 1
EndSplineSet
EndChar

StartChar: ebu
Encoding: 10 60234 11
Width: 1200
VWidth: 0
Flags: W
HStem: -12 100<337.097 562.903> 450 100<877 1049> 912 100<337.097 562.903>
VStem: 88 100<276.625 723.375> 712 100<276.625 723.375> 877 222<450 550> 999 100<0 450 550 1000> 999 50<450 550>
CounterMasks: 1 e0
LayerCount: 2
Back
SplineSet
138 500 m 4
 138 755.111111111 277.68 962 450 962 c 4
 622.32 962 762 755.111111111 762 500 c 4
 762 244.888888889 622.32 38 450 38 c 4
 277.68 38 138 244.888888889 138 500 c 4
877 500 m 29
 1049 500 l 1045
1049 1000 m 29
 1049 0 l 1053
EndSplineSet
Fore
SplineSet
188 500 m 4xf8
 188 255.793518657 321.574904364 88 450 88 c 4
 578.424752393 88 712 255.794167148 712 500 c 4
 712 744.206481343 578.425095636 912 450 912 c 4
 321.575247607 912 188 744.205832852 188 500 c 4xf8
88 500 m 4
 88 766.016389371 233.784752393 1012 450 1012 c 4
 666.214904364 1012 812 766.01574088 812 500 c 4
 812 233.983610629 666.215247607 -12 450 -12 c 4
 233.785095636 -12 88 233.98425912 88 500 c 4
877 500 m 1xfc
 877 550 l 1xfc
 1049 550 l 1
 1049 500 l 1
 1049 450 l 1xf9
 877 450 l 1
 877 500 l 1xfc
1049 1000 m 1xf9
 1099 1000 l 1
 1099 0 l 1xfa
 1049 0 l 1xf9
 999 0 l 1
 999 1000 l 1xfa
 1049 1000 l 1xf9
EndSplineSet
EndChar

StartChar: obu
Encoding: 11 60235 12
Width: 1200
VWidth: 0
Flags: W
HStem: -12 100<337.097 562.903> 450 100<927 1099> 912 100<337.097 562.903>
VStem: 88 100<276.625 723.375> 712 100<276.625 723.375> 877 222<450 550> 877 100<0 450 550 1000> 927 50<450 550>
CounterMasks: 1 e0
LayerCount: 2
Back
SplineSet
1099 500 m 29
 927 500 l 1045
927 1000 m 29
 927 0 l 1053
138 500 m 4
 138 755.111111111 277.68 962 450 962 c 4
 622.32 962 762 755.111111111 762 500 c 4
 762 244.888888889 622.32 38 450 38 c 4
 277.68 38 138 244.888888889 138 500 c 4
EndSplineSet
Fore
SplineSet
1099 500 m 1xfc
 1099 450 l 1xfc
 927 450 l 1
 927 500 l 1
 927 550 l 1xf9
 1099 550 l 1
 1099 500 l 1xfc
927 1000 m 1xf9
 977 1000 l 1
 977 0 l 1xfa
 927 0 l 1xf9
 877 0 l 1
 877 1000 l 1xfa
 927 1000 l 1xf9
188 500 m 0
 188 255.793518657 321.574904364 88 450 88 c 0
 578.424752393 88 712 255.794167148 712 500 c 0
 712 744.206481343 578.425095636 912 450 912 c 0
 321.575247607 912 188 744.205832852 188 500 c 0
88 500 m 0
 88 766.016389371 233.784752393 1012 450 1012 c 0
 666.214904364 1012 812 766.01574088 812 500 c 0
 812 233.983610629 666.215247607 -12 450 -12 c 0
 233.785095636 -12 88 233.98425912 88 500 c 0
EndSplineSet
EndChar

StartChar: ibu
Encoding: 12 60236 13
Width: 1200
VWidth: 0
Flags: W
HStem: 0 100<200 1099> 288 100<384.535 815.465> 912 100<384.535 815.465>
VStem: 100 100<100 250 522.959 777.041> 1012 100<536.852 763.148>
LayerCount: 2
Back
SplineSet
138 650 m 4
 138 869.874956837 427.6796875 962 600 962 c 4
 772.3203125 962 1062 869.874956837 1062 650 c 4
 1062 430.125043163 772.3203125 338 600 338 c 4
 427.6796875 338 138 430.125043163 138 650 c 4
1099 50 m 29
 150 50 l 29
 150 250 l 1053
EndSplineSet
Fore
SplineSet
188 650 m 4
 188 481.468611594 430.082252853 388 600 388 c 4
 769.919108533 388 1012 481.467953383 1012 650 c 4
 1012 818.531388406 769.917747147 912 600 912 c 4
 430.080891467 912 188 818.532046617 188 650 c 4
88 650 m 4
 88 921.217867057 425.278483533 1012 600 1012 c 4
 774.722877853 1012 1112 921.218525268 1112 650 c 4
 1112 378.782132943 774.721516467 288 600 288 c 4
 425.277122147 288 88 378.781474732 88 650 c 4
1099 50 m 1
 1099 0 l 1
 150 0 l 2
 119.734924289 0 100 28.5401913347 100 50 c 2
 100 250 l 1
 150 250 l 1
 200 250 l 1
 200 100 l 1
 1099 100 l 1
 1099 50 l 1
EndSplineSet
EndChar

StartChar: abu
Encoding: 14 60238 15
Width: 1200
VWidth: 0
Flags: W
HStem: 469 100<100 1099>
AnchorPoint: "Above" 600 0 basechar 0
LayerCount: 2
Back
SplineSet
1099 519 m 29
 100 519 l 1053
EndSplineSet
Fore
SplineSet
1099 519 m 1
 1099 469 l 1
 100 469 l 1
 100 519 l 1
 100 569 l 1
 1099 569 l 1
 1099 519 l 1
EndSplineSet
EndChar

StartChar: ybu
Encoding: 15 60239 16
Width: 1200
VWidth: 0
Flags: W
HStem: 0 21G<550 650>
VStem: 550 100<0 1000>
AnchorPoint: "Above" 600 0 basechar 0
LayerCount: 2
Back
SplineSet
600 1000 m 29
 600 0 l 1053
EndSplineSet
Fore
SplineSet
600 1000 m 1
 650 1000 l 1
 650 0 l 1
 600 0 l 1
 550 0 l 1
 550 1000 l 1
 600 1000 l 1
EndSplineSet
EndChar

StartChar: ny
Encoding: 16 60240 17
Width: 1200
Flags: W
HStem: 0 100<200 999> 900 100<200 999>
VStem: 100 100<100 900> 999 100<100 900>
AnchorPoint: "Above" 600 0 basechar 0
LayerCount: 2
Back
SplineSet
150 950 m 29
 1049 950 l 29
 1049 50 l 29
 150 50 l 29
 150 950 l 29
EndSplineSet
Fore
SplineSet
200 900 m 1
 200 100 l 1
 999 100 l 1
 999 900 l 1
 200 900 l 1
150 1000 m 2
 1049 1000 l 2
 1079.26507571 1000 1099 971.459808665 1099 950 c 2
 1099 50 l 2
 1099 19.7349242889 1070.45980867 0 1049 0 c 2
 150 0 l 2
 119.734924289 0 100 28.5401913347 100 50 c 2
 100 950 l 2
 100 980.265075711 128.540191335 1000 150 1000 c 2
EndSplineSet
EndChar

StartChar: ty
Encoding: 17 60241 18
Width: 1200
Flags: W
HStem: 0 100<200 1099> 900 100<200 1099>
VStem: 100 100<100 900>
AnchorPoint: "Above" 600 0 basechar 0
LayerCount: 2
Back
SplineSet
1099 950 m 29
 150 950 l 29
 150 50 l 29
 1099 50 l 1053
EndSplineSet
Fore
SplineSet
1099 950 m 1
 1099 900 l 1
 200 900 l 1
 200 100 l 1
 1099 100 l 1
 1099 50 l 1
 1099 0 l 1
 150 0 l 2
 128.540191335 0 100 19.7349242889 100 50 c 2
 100 950 l 2
 100 971.459808665 119.734924289 1000 150 1000 c 2
 1099 1000 l 1
 1099 950 l 1
EndSplineSet
EndChar

StartChar: dy
Encoding: 18 60242 19
Width: 1200
Flags: W
HStem: 0 100<100 999> 900 100<100 999>
VStem: 999 100<100 900>
AnchorPoint: "Above" 600 0 basechar 0
LayerCount: 2
Back
SplineSet
100 50 m 29
 1049 50 l 29
 1049 950 l 29
 100 950 l 1053
EndSplineSet
Fore
SplineSet
100 50 m 1
 100 100 l 1
 999 100 l 1
 999 900 l 1
 100 900 l 1
 100 950 l 1
 100 1000 l 1
 1049 1000 l 2
 1070.45980867 1000 1099 980.265075711 1099 950 c 2
 1099 50 l 2
 1099 28.5401913347 1079.26507571 0 1049 0 c 2
 100 0 l 1
 100 50 l 1
EndSplineSet
EndChar

StartChar: sy
Encoding: 19 60243 20
Width: 1200
Flags: W
HStem: 0.5 100<199.5 999.5>
VStem: 99.5 100<100.5 999.5> 999.5 100<100.5 999.5>
AnchorPoint: "Above" 600 0 basechar 0
LayerCount: 2
Back
SplineSet
149.5 999.5 m 29
 149.5 50.5 l 29
 1049.5 50.5 l 29
 1049.5 999.5 l 1053
EndSplineSet
Fore
SplineSet
149.5 999.5 m 1
 199.5 999.5 l 1
 199.5 100.5 l 1
 999.5 100.5 l 1
 999.5 999.5 l 1
 1049.5 999.5 l 1
 1099.5 999.5 l 1
 1099.5 50.5 l 2
 1099.5 29.0401913347 1079.76507571 0.5 1049.5 0.5 c 2
 149.5 0.5 l 2
 128.040191335 0.5 99.5 20.2349242889 99.5 50.5 c 2
 99.5 999.5 l 1
 149.5 999.5 l 1
EndSplineSet
EndChar

StartChar: zy
Encoding: 20 60244 21
Width: 1200
Flags: W
HStem: 0.5 21G<99.5 199.5 999.5 1099.5> 899.5 100<199.5 999.5>
VStem: 99.5 100<0.5 899.5> 999.5 100<0.5 899.5>
AnchorPoint: "Above" 600 0 basechar 0
LayerCount: 2
Back
SplineSet
1049.5 0.5 m 29
 1049.5 949.5 l 29
 149.5 949.5 l 29
 149.5 0.5 l 1053
EndSplineSet
Fore
SplineSet
1049.5 0.5 m 1
 999.5 0.5 l 1
 999.5 899.5 l 1
 199.5 899.5 l 1
 199.5 0.5 l 1
 149.5 0.5 l 1
 99.5 0.5 l 1
 99.5 949.5 l 2
 99.5 970.959808665 119.234924289 999.5 149.5 999.5 c 2
 1049.5 999.5 l 2
 1070.95980867 999.5 1099.5 979.765075711 1099.5 949.5 c 2
 1099.5 0.5 l 1
 1049.5 0.5 l 1
EndSplineSet
EndChar

StartChar: gy
Encoding: 21 60245 22
Width: 1200
Flags: W
AnchorPoint: "Above" 600 0 basechar 0
LayerCount: 2
Back
SplineSet
100 1000 m 29
 1112 500 l 29
 100 0 l 1053
EndSplineSet
Fore
SplineSet
100 1000 m 1
 122.147808102 1044.8271636 l 1
 1134.1478081 544.827163598 l 2
 1159.91518591 532.096245709 1169.66463913 499.092573037 1154.95133103 474.40345409 c 0
 1149.91328535 465.949549067 1138.85887433 457.500438295 1134.1478081 455.172836402 c 2
 122.147808102 -44.8271635984 l 1
 100 0 l 1
 77.852191898 44.8271635984 l 1
 999.122012775 500 l 1
 77.852191898 955.172836402 l 1
 100 1000 l 1
EndSplineSet
EndChar

StartChar: jy
Encoding: 22 60246 23
Width: 1200
Flags: W
HStem: -45.5531 95.1063<1038.72 1088.1> 451 100<100 1099>
VStem: 550 100<558.861 1001>
LayerCount: 2
Back
SplineSet
100 501 m 29
 1099 501 l 1053
600 671 m 29
 600 1001 l 1053
100 0 m 21
 203.647460938 47.34375 594.529296875 369.13671875 600 671 c 5
 595.09765625 380.403320312 968.986328125 44.2412109375 1099 2 c 1037
EndSplineSet
Fore
SplineSet
100 501 m 1
 100 551 l 1
 1099 551 l 1
 1099 501 l 1
 1099 451 l 1
 100 451 l 1
 100 501 l 1
600 671 m 1
 550 671 l 1
 550 1001 l 1
 600 1001 l 1
 650 1001 l 1
 650 671 l 1
 600 671 l 1
1106.72496305 25.7765629537 m 1
 1099 2 l 1
 1083.5500739 -45.5531259074 l 1
 959.549829188 -5.26566676768 706.109137535 213.531261774 597.421867491 460.461527896 c 1
 481.749692159 210.619219352 217.713429164 -1.20043862942 120.774214525 -45.4800177098 c 1
 100 0 l 1
 79.2257854754 45.4800177098 l 1
 171.10362061 87.4476763271 545.177157759 405.337524882 550.008209161 671.906007002 c 0
 550.528996622 700.642095982 576.218774145 723.54033999 604.825424433 720.766608072 c 0
 630.477940904 718.279312182 650.425322551 695.790165744 649.99288666 670.156623827 c 0
 645.674495294 414.174943089 1004.2405126 85.3599684925 1114.4499261 49.5531259074 c 1
 1106.72496305 25.7765629537 l 1
EndSplineSet
EndChar

StartChar: yhy
Encoding: 23 60247 24
Width: 1200
VWidth: 4000
Flags: W
HStem: 0 21G<999 1099>
VStem: 100 100<170.806 1000> 999 100<0 829.194>
AnchorPoint: "Above" 600 0 basechar 0
LayerCount: 2
Back
SplineSet
150 1000 m 29
 150 50 l 29
 1049 950 l 29
 1049 0 l 1053
EndSplineSet
Fore
SplineSet
150 1000 m 1
 200 1000 l 1
 200 170.805633809 l 1
 1013.62501363 985.335680827 l 2
 1033.93653381 1005.66979447 1068.32432574 1004.3378732 1087.00217663 982.493608157 c 0
 1095.16498322 972.946979287 1099 955.748183005 1099 950 c 2
 1099 0 l 1
 1049 0 l 1
 999 0 l 1
 999 829.194366191 l 1
 185.374986367 14.664319173 l 2
 178.954017416 8.23620787594 166.035563487 1.10739171568 153.922854272 0.154125402803 c 0
 125.270640305 -2.10079460563 100 21.2591922616 100 50 c 2
 100 1000 l 1
 150 1000 l 1
EndSplineSet
EndChar

StartChar: uy
Encoding: 24 60248 25
Width: 1200
VWidth: 4000
Flags: W
HStem: 0.5 100<99.5 999.5>
VStem: 999.5 100<100.5 999.5>
AnchorPoint: "Above" 600 0 basechar 0
LayerCount: 2
Back
SplineSet
99.5 50.5 m 29
 1049.5 50.5 l 29
 1049.5 999.5 l 1053
EndSplineSet
Fore
SplineSet
99.5 50.5 m 1
 99.5 100.5 l 1
 999.5 100.5 l 1
 999.5 999.5 l 1
 1049.5 999.5 l 1
 1099.5 999.5 l 1
 1099.5 50.5 l 2
 1099.5 29.0401913347 1079.76507571 0.5 1049.5 0.5 c 2
 99.5 0.5 l 1
 99.5 50.5 l 1
EndSplineSet
EndChar

StartChar: ly
Encoding: 25 60249 26
Width: 1200
Flags: W
HStem: 0 100<100 999> 450 100<200 999> 898 100<200 1099>
VStem: 100 100<550 898> 999 100<100 450>
AnchorPoint: "Above" 600 0 basechar 0
LayerCount: 2
Back
SplineSet
1099 948 m 29
 150 948 l 29
 150 500 l 29
 1049 500 l 29
 1049 50 l 29
 100 50 l 1053
EndSplineSet
Fore
SplineSet
1099 948 m 1
 1099 898 l 1
 200 898 l 1
 200 550 l 1
 1049 550 l 2
 1079.26507571 550 1099 521.459808665 1099 500 c 2
 1099 50 l 2
 1099 19.7349242889 1070.45980867 0 1049 0 c 2
 100 0 l 1
 100 50 l 1
 100 100 l 1
 999 100 l 1
 999 450 l 1
 150 450 l 2
 128.540191335 450 100 469.734924289 100 500 c 2
 100 948 l 2
 100 969.459808665 119.734924289 998 150 998 c 2
 1099 998 l 1
 1099 948 l 1
EndSplineSet
EndChar

StartChar: eibu
Encoding: 26 60251 27
Width: 1200
VWidth: 0
Flags: W
HStem: 90 180<100 1099> 430 180<100 1099> 756 180<100 1099>
LayerCount: 2
Back
SplineSet
1099 50 m 29
 100 50 l 1053
138 650 m 4
 138 869.874956837 427.6796875 962 600 962 c 4
 772.3203125 962 1062 869.874956837 1062 650 c 4
 1062 430.125043163 772.3203125 338 600 338 c 4
 427.6796875 338 138 430.125043163 138 650 c 4
1099 200 m 29
 150 200 l 29
 150 350 l 1053
EndSplineSet
Fore
SplineSet
877 400 m 1
 877 450 l 1
 1049 450 l 1
 1049 400 l 1
 1049 350 l 1
 877 350 l 1
 877 400 l 1
188 500 m 0
 188 255.793518657 321.574904364 88 450 88 c 0
 578.424752393 88 712 255.794167148 712 500 c 0
 712 744.206481343 578.425095636 912 450 912 c 0
 321.575247607 912 188 744.205832852 188 500 c 0
88 500 m 0
 88 766.016389371 233.784752393 1012 450 1012 c 0
 666.214904364 1012 812 766.01574088 812 500 c 0
 812 233.983610629 666.215247607 -12 450 -12 c 0
 233.785095636 -12 88 233.98425912 88 500 c 0
877 600 m 1
 877 650 l 1
 1049 650 l 1
 1049 600 l 1
 1049 550 l 1
 877 550 l 1
 877 600 l 1
1049 1000 m 1
 1099 1000 l 1
 1099 0 l 1
 1049 0 l 1
 999 0 l 1
 999 1000 l 1
 1049 1000 l 1
EndSplineSet
LCarets2: 1 0
EndChar

StartChar: oibu
Encoding: 27 60252 28
Width: 1200
VWidth: 0
Flags: W
HStem: 1 21G<507 687> 236 190<100 507 687 1099> 606 190<100 507 687 1099>
VStem: 507 180<1 236 426 606 796 1000>
LayerCount: 2
Back
SplineSet
877 400 m 29
 1049 400 l 1045
138 500 m 4
 138 755.111111111 277.68 962 450 962 c 4
 622.32 962 762 755.111111111 762 500 c 4
 762 244.888888889 622.32 38 450 38 c 4
 277.68 38 138 244.888888889 138 500 c 4
877 600 m 29
 1049 600 l 1045
1049 1000 m 29
 1049 0 l 1053
EndSplineSet
Fore
SplineSet
1099 400 m 1
 1099 350 l 1
 927 350 l 1
 927 400 l 1
 927 450 l 1
 1099 450 l 1
 1099 400 l 1
1099 600 m 1
 1099 550 l 1
 927 550 l 1
 927 600 l 1
 927 650 l 1
 1099 650 l 1
 1099 600 l 1
927 1000 m 1
 977 1000 l 1
 977 0 l 1
 927 0 l 1
 877 0 l 1
 877 1000 l 1
 927 1000 l 1
188 500 m 0
 188 255.793518657 321.574904364 88 450 88 c 0
 578.424752393 88 712 255.794167148 712 500 c 0
 712 744.206481343 578.425095636 912 450 912 c 0
 321.575247607 912 188 744.205832852 188 500 c 0
88 500 m 0
 88 766.016389371 233.784752393 1012 450 1012 c 0
 666.214904364 1012 812 766.01574088 812 500 c 0
 812 233.983610629 666.215247607 -12 450 -12 c 0
 233.785095636 -12 88 233.98425912 88 500 c 0
EndSplineSet
LCarets2: 1 0
EndChar

StartChar: aibu
Encoding: 28 60250 29
Width: 1200
VWidth: 0
Flags: W
HStem: 162 180<100 1099> 490.239 347.761<484.281 723.998>
VStem: 420.6 367.08<553.279 774.96>
LayerCount: 2
Back
SplineSet
1099 400 m 29
 927 400 l 1045
1099 600 m 29
 927 600 l 1045
927 1000 m 29
 927 0 l 1053
138 500 m 4
 138 755.111111111 277.68 962 450 962 c 4
 622.32 962 762 755.111111111 762 500 c 4
 762 244.888888889 622.32 38 450 38 c 4
 277.68 38 138 244.888888889 138 500 c 4
EndSplineSet
Fore
SplineSet
1099 50 m 1
 1099 0 l 1
 100 0 l 1
 100 50 l 1
 100 100 l 1
 1099 100 l 1
 1099 50 l 1
188 650 m 0
 188 481.468611594 430.082252853 388 600 388 c 0
 769.919108533 388 1012 481.467953383 1012 650 c 0
 1012 818.531388406 769.917747147 912 600 912 c 0
 430.080891467 912 188 818.532046617 188 650 c 0
88 650 m 0
 88 921.217867057 425.278483533 1012 600 1012 c 0
 774.722877853 1012 1112 921.218525268 1112 650 c 0
 1112 378.782132943 774.721516467 288 600 288 c 0
 425.277122147 288 88 378.781474732 88 650 c 0
1099 200 m 1
 1099 150 l 1
 150 150 l 2
 119.734924289 150 100 178.540191335 100 200 c 2
 100 350 l 1
 150 350 l 1
 200 350 l 1
 200 250 l 1
 1099 250 l 1
 1099 200 l 1
EndSplineSet
LCarets2: 1 0
EndChar

StartChar: denpabu
Encoding: 31 60255 32
Width: 0
VWidth: 0
Flags: W
HStem: -12 100<422.665 777.335> 912 100<422.665 777.335>
VStem: 88 100<322.688 677.312> 1012 100<322.688 677.312>
LayerCount: 2
Back
SplineSet
138 500 m 4
 138 755.111111111 344.833846154 962 600 962 c 4
 855.166153846 962 1062 755.111111111 1062 500 c 4
 1062 244.888888889 855.166153846 38 600 38 c 4
 344.833846154 38 138 244.888888889 138 500 c 4
EndSplineSet
Fore
SplineSet
188 500 m 0
 188 272.494315424 372.445321928 88 600 88 c 0
 827.554389131 88 1012 272.4940291 1012 500 c 0
 1012 727.505684576 827.554678072 912 600 912 c 0
 372.445610869 912 188 727.5059709 188 500 c 0
88 500 m 0
 88 782.716251322 317.222081439 1012 600 1012 c 0
 882.777629621 1012 1112 782.716537646 1112 500 c 0
 1112 217.283748678 882.777918561 -12 600 -12 c 0
 317.222370379 -12 88 217.283462354 88 500 c 0
EndSplineSet
EndChar

StartChar: NameMe.42
Encoding: 42 -1 33
Width: 0
VWidth: 0
Flags: W
HStem: 0 21G<999 1099> 450 100<877 1049>
VStem: 877 222<450 550> 999 100<0 450 550 1000> 999 50<450 550>
AnchorPoint: "Above" 600 0 mark 0
LayerCount: 2
Back
SplineSet
877 500 m 25
 1049 500 l 1041
1049 1000 m 25
 1049 0 l 1049
EndSplineSet
Fore
SplineSet
877 500 m 1xe0
 877 550 l 1xe0
 1049 550 l 1
 1049 500 l 1
 1049 450 l 1xc8
 877 450 l 1
 877 500 l 1xe0
1049 1000 m 1xc8
 1099 1000 l 1
 1099 0 l 1xd0
 1049 0 l 1xc8
 999 0 l 1
 999 1000 l 1xd0
 1049 1000 l 1xc8
EndSplineSet
EndChar

StartChar: NameMe.43
Encoding: 43 -1 34
Width: 1200
VWidth: 0
Flags: W
HStem: 0 21G<552 652> 450 100<602 774>
VStem: 552 222<450 550> 552 100<0 450 550 1000> 602 50<450 550>
LayerCount: 2
Back
SplineSet
774 500 m 25
 602 500 l 1041
602 1000 m 25
 602 0 l 1049
EndSplineSet
Fore
SplineSet
774 500 m 1xe0
 774 450 l 1xe0
 602 450 l 1
 602 500 l 1
 602 550 l 1xc8
 774 550 l 1
 774 500 l 1xe0
602 1000 m 1xc8
 652 1000 l 1
 652 0 l 1xd0
 602 0 l 1xc8
 552 0 l 1
 552 1000 l 1xd0
 602 1000 l 1xc8
EndSplineSet
EndChar

StartChar: NameMe.44
Encoding: 44 -1 35
Width: 2000
VWidth: 0
LayerCount: 2
Back
SplineSet
1099 50 m 29
 150 50 l 29
 150 250 l 1053
EndSplineSet
EndChar

StartChar: my.ce.1
Encoding: 32 -1 36
Width: 1200
VWidth: 0
Flags: W
HStem: 0 100<200 700> 450 100<150 750> 900 100<200 700>
VStem: 150 50<450 550> 700 50<450 550>
CounterMasks: 1 e0
AnchorPoint: "Above" 600 0 basechar 0
LayerCount: 2
Back
SplineSet
150 500 m 29
 750 500 l 1053
150 950 m 29
 750 950 l 29
 750 50 l 29
 150 50 l 29
 150 950 l 29
EndSplineSet
Fore
SplineSet
150 500 m 1
 150 550 l 1
 750 550 l 1
 750 500 l 1
 750 450 l 1
 150 450 l 1
 150 500 l 1
200 900 m 1
 200 100 l 1
 700 100 l 1
 700 900 l 1
 200 900 l 1
150 1000 m 2
 750 1000 l 2
 780.265075711 1000 800 971.459808665 800 950 c 2
 800 50 l 2
 800 19.7349242889 771.459808665 0 750 0 c 2
 150 0 l 2
 119.734924289 0 100 28.5401913347 100 50 c 2
 100 950 l 2
 100 980.265075711 128.540191335 1000 150 1000 c 2
EndSplineSet
EndChar

StartChar: my.ci.1
Encoding: 64 -1 37
Width: 1200
VWidth: 0
Flags: W
HStem: 300 100<200 999> 600 100<150 1049> 900 100<200 999>
VStem: 150 50<600 700> 999 50<600 700>
CounterMasks: 1 e0
LayerCount: 2
Back
SplineSet
150 950 m 25
 1049 950 l 25
 1049 350 l 25
 150 350 l 25
 150 950 l 25
150 650 m 25
 1049 650 l 1049
EndSplineSet
Fore
SplineSet
200 900 m 5
 200 400 l 5
 999 400 l 5
 999 900 l 5
 200 900 l 5
150 1000 m 6
 1049 1000 l 6
 1079.26507571 1000 1099 971.459808665 1099 950 c 6
 1099 350 l 6
 1099 319.734924289 1070.45980867 300 1049 300 c 6
 150 300 l 6
 119.734924289 300 100 328.540191335 100 350 c 6
 100 950 l 6
 100 980.265075711 128.540191335 1000 150 1000 c 6
150 650 m 5
 150 700 l 5
 1049 700 l 5
 1049 650 l 5
 1049 600 l 5
 150 600 l 5
 150 650 l 5
EndSplineSet
EndChar

StartChar: my.cec.1
Encoding: 96 -1 38
Width: 1200
VWidth: 0
Flags: W
HStem: 550 100<200 699> 725 100<150 749> 900 100<200 699>
VStem: 150 50<725 825> 699 50<725 825>
CounterMasks: 1 e0
AnchorPoint: "Above" 600 0 basechar 0
LayerCount: 2
Back
SplineSet
150 950 m 29
 749 950 l 29
 749 600 l 29
 150 600 l 29
 150 950 l 29
150 775 m 29
 749 775 l 1053
EndSplineSet
Fore
SplineSet
200 900 m 5
 200 650 l 5
 699 650 l 5
 699 900 l 5
 200 900 l 5
150 1000 m 6
 749 1000 l 6
 779.265075711 1000 799 971.459808665 799 950 c 6
 799 600 l 6
 799 569.734924289 770.459808665 550 749 550 c 6
 150 550 l 6
 119.734924289 550 100 578.540191335 100 600 c 6
 100 950 l 6
 100 980.265075711 128.540191335 1000 150 1000 c 6
150 775 m 5
 150 825 l 5
 749 825 l 5
 749 775 l 5
 749 725 l 5
 150 725 l 5
 150 775 l 5
EndSplineSet
EndChar

StartChar: my.cec.3
Encoding: 128 -1 39
Width: 0
VWidth: 0
Flags: W
HStem: 0 100<200 999> 175 100<150 1049> 350 100<200 999>
VStem: 150 50<175 275> 999 50<175 275>
CounterMasks: 1 e0
AnchorPoint: "Above" 600 0 mark 0
LayerCount: 2
Back
SplineSet
150 400 m 5
 1049 400 l 29
 1049 50 l 29
 150 50 l 5
 150 400 l 5
150 225 m 5
 1049 225 l 1053
EndSplineSet
Fore
SplineSet
200 350 m 1
 200 100 l 1
 999 100 l 1
 999 350 l 1
 200 350 l 1
150 450 m 2
 1049 450 l 2
 1079.26507571 450 1099 421.459808665 1099 400 c 2
 1099 50 l 2
 1099 19.7349242889 1070.45980867 0 1049 0 c 2
 150 0 l 2
 119.734924289 0 100 28.5401913347 100 50 c 2
 100 400 l 2
 100 430.265075711 128.540191335 450 150 450 c 2
150 225 m 1
 150 275 l 1
 1049 275 l 1
 1049 225 l 1
 1049 175 l 1
 150 175 l 1
 150 225 l 1
EndSplineSet
EndChar

StartChar: ebu.cec.2
Encoding: 106 -1 40
Width: 0
VWidth: 0
Flags: W
HStem: 725 100<877 1049>
VStem: 877 222<725 825> 999 100<550 725 825 1000> 999 50<725 825>
AnchorPoint: "Above" 600 0 mark 0
LayerCount: 2
Back
SplineSet
877 775 m 29
 1049 775 l 1045
1049 1000 m 5
 1049 550 l 1053
EndSplineSet
Fore
SplineSet
877 775 m 1xc0
 877 825 l 1xc0
 1049 825 l 1
 1049 775 l 1
 1049 725 l 1x90
 877 725 l 1
 877 775 l 1xc0
1049 1000 m 1x90
 1099 1000 l 1
 1099 550 l 1xa0
 1049 550 l 1x90
 999 550 l 1
 999 1000 l 1xa0
 1049 1000 l 1x90
EndSplineSet
EndChar

StartChar: ly.cec.3
Encoding: 137 -1 41
Width: 0
VWidth: 0
Flags: W
HStem: 0 100<100 999> 175 100<200 999> 350 100<200 1099>
VStem: 100 100<275 350> 999 100<100 175>
CounterMasks: 1 e0
AnchorPoint: "Above" 600 0 mark 0
LayerCount: 2
Back
SplineSet
1099 400 m 29
 150 400 l 5
 150 225 l 5
 1049 225 l 29
 1049 50 l 5
 100 50 l 1053
EndSplineSet
Fore
SplineSet
1099 400 m 1
 1099 350 l 1
 200 350 l 1
 200 275 l 1
 1049 275 l 2
 1079.26507571 275 1099 246.459808665 1099 225 c 2
 1099 50 l 2
 1099 19.7349242889 1070.45980867 0 1049 0 c 2
 100 0 l 1
 100 50 l 1
 100 100 l 1
 999 100 l 1
 999 175 l 1
 150 175 l 2
 128.540191335 175 100 194.734924289 100 225 c 2
 100 400 l 2
 100 421.459808665 119.734924289 450 150 450 c 2
 1099 450 l 1
 1099 400 l 1
EndSplineSet
EndChar

StartChar: by.ci.1
Encoding: 66 -1 42
Width: 1200
VWidth: 0
Flags: W
HStem: 300 100<100 999> 600 100<100 1049> 900 100<100 999>
VStem: 999 50<600 700>
CounterMasks: 1 e0
AnchorPoint: "Above" 600 0 basechar 0
LayerCount: 2
Back
SplineSet
100 350 m 29
 1049 350 l 29
 1049 950 l 5
 100 950 l 1053
100 650 m 29
 1049 650 l 1053
EndSplineSet
Fore
SplineSet
100 350 m 1
 100 400 l 1
 999 400 l 1
 999 900 l 1
 100 900 l 1
 100 950 l 1
 100 1000 l 1
 1049 1000 l 2
 1070.45980867 1000 1099 980.265075711 1099 950 c 2
 1099 350 l 2
 1099 328.540191335 1079.26507571 300 1049 300 c 2
 100 300 l 1
 100 350 l 1
100 650 m 1
 100 700 l 1
 1049 700 l 1
 1049 650 l 1
 1049 600 l 1
 100 600 l 1
 100 650 l 1
EndSplineSet
EndChar

StartChar: ibu.ci.2
Encoding: 76 -1 43
Width: 0
VWidth: 0
Flags: WO
HStem: 0 200<100.513 200>
VStem: 100 100<100 200>
AnchorPoint: "Above" 600 0 mark 0
LayerCount: 2
Fore
SplineSet
1099 50 m 1
 1099 0 l 1
 150 0 l 2
 119.734924289 0 100 28.5401913347 100 50 c 2
 100 200 l 1
 150 200 l 1
 200 200 l 1
 200 100 l 1
 1099 100 l 1
 1099 50 l 1
EndSplineSet
EndChar
